HIERARCHY
ROOT Hips
{
	OFFSET 0.00000 0.00000 0.00000
	CHANNELS 6 Xposition Yposition Zposition Zrotation Yrotation Xrotation 
	JOINT LHipJoint
	{
		OFFSET 0 0 0
		CHANNELS 3 Zrotation Yrotation Xrotation
		JOINT LeftHip
		{
			OFFSET 1.55766 -1.60504 1.11378
			CHANNELS 3 Zrotation Yrotation Xrotation
			JOINT LeftKnee
			{
				OFFSET 2.29047 -6.29302 0.00000
				CHANNELS 3 Zrotation Yrotation Xrotation
				JOINT LeftAnkle
				{
					OFFSET 2.52265 -6.93093 0.00000
					CHANNELS 3 Zrotation Yrotation Xrotation
					JOINT LeftToe
					{
						OFFSET 0.17633 -0.48446 2.02656
						CHANNELS 3 Zrotation Yrotation Xrotation
						End Site
						{
							OFFSET 0.00000 -0.00000 1.04989
						}
					}
				}
			}
		}
	}
	JOINT RHipJoint
	{
		OFFSET 0 0 0
		CHANNELS 3 Zrotation Yrotation Xrotation
		JOINT RightHip
		{
			OFFSET -1.48599 -1.60504 1.11378
			CHANNELS 3 Zrotation Yrotation Xrotation
			JOINT RightKnee
			{
				OFFSET -2.27280 -6.24448 0.00000
				CHANNELS 3 Zrotation Yrotation Xrotation
				JOINT RightAnkle
				{
					OFFSET -2.50834 -6.89161 0.00000
					CHANNELS 3 Zrotation Yrotation Xrotation
					JOINT RightToe
					{
						OFFSET -0.26967 -0.74090 2.08741
						CHANNELS 3 Zrotation Yrotation Xrotation
						End Site
						{
							OFFSET -0.00000 -0.00000 1.10614
						}
					}
				}
			}
		}
	}
	JOINT lowerback
	{
		OFFSET 0 0 0
		CHANNELS 3 Zrotation Yrotation Xrotation
		JOINT Chest
		{
			OFFSET 0.06481 2.02437 -0.08472
			CHANNELS 3 Zrotation Yrotation Xrotation
			JOINT Chest2
			{
				OFFSET 0.00015 1.96711 0.18069
				CHANNELS 3 Zrotation Yrotation Xrotation
				JOINT lowerneck
				{
					OFFSET 0 0 0
					CHANNELS 3 Zrotation Yrotation Xrotation
					JOINT Neck
					{
						OFFSET -0.29961 1.68293 -0.13041
						CHANNELS 3 Zrotation Yrotation Xrotation
						JOINT Head
						{
							OFFSET 0.59697 1.61501 -0.14669
							CHANNELS 3 Zrotation Yrotation Xrotation
							End Site
							{
								OFFSET 0.22973 1.74906 -0.10148
							}
						}
					}
				}
				JOINT LeftCollar
				{
					OFFSET 0 0 0
					CHANNELS 3 Zrotation Yrotation Xrotation
					JOINT LeftShoulder
					{
						OFFSET 3.37968 1.02893 0.31147
CHANNELS 3 Zrotation Xrotation Yrotation
						JOINT LeftElbow
						{
OFFSET 0 -5.198070 -0.000000
CHANNELS 3 Zrotation Xrotation Yrotation
							JOINT LeftWrist
							{
OFFSET 0 -3.093700 -0.000000
CHANNELS 3 Zrotation Xrotation Yrotation
								JOINT lhand
								{
									OFFSET 0 0 0
CHANNELS 3 Zrotation Xrotation Yrotation
									JOINT LFingers
									{
OFFSET 0 -0.672630 -0.000000
CHANNELS 3 Zrotation Xrotation Yrotation
										End Site
										{
OFFSET 0 -0.542290 -0.000000
										}
									}
								}
								JOINT LThumb
								{
OFFSET 0 0.000000 0.000000
CHANNELS 3 Zrotation Xrotation Yrotation
									End Site
									{
OFFSET 0 -0.550570 0.550570
									}
								}
							}
						}
					}
				}
				JOINT RightCollar
				{
					OFFSET 0 0 0
					CHANNELS 3 Zrotation Yrotation Xrotation
					JOINT RightShoulder
					{
						OFFSET -3.38254 0.96355 -0.16120
CHANNELS 3 Zrotation Xrotation Yrotation
						JOINT RightElbow
						{
OFFSET 0 -5.452220 -0.000000
CHANNELS 3 Zrotation Xrotation Yrotation
							JOINT RightWrist
							{
OFFSET 0 -3.012840 -0.000000
CHANNELS 3 Zrotation Xrotation Yrotation
								JOINT rhand
								{
									OFFSET 0 0 0
CHANNELS 3 Zrotation Xrotation Yrotation
									JOINT RFingers
									{
OFFSET 0 -0.622300 -0.000000
CHANNELS 3 Zrotation Xrotation Yrotation
										End Site
										{
OFFSET 0 -0.501710 -0.000000
										}
									}
								}
								JOINT RThumb
								{
OFFSET 0 0.000000 0.000000
CHANNELS 3 Zrotation Xrotation Yrotation
									End Site
									{
OFFSET 0 -0.509370 0.509370
									}
								}
							}
						}
					}
				}
			}
		}
	}
}
MOTION
Frames: 5
Frame Time: 0.008333333333333333
-5.711200 16.323500 34.611900 -133.570000 -82.345000 148.049000 0.000000 0.000000 0.000000 -12.844200 -0.282600 -20.011800 0.837300 5.837000 16.312300 0.260800 -10.839800 -11.107100 0.940000 -6.175200 -17.293700 0.000000 0.000000 0.000000 26.640400 -10.439100 -12.545800 0.000000 -0.000000 0.000000 1.537900 23.496300 -1.833500 -0.234200 3.114400 -8.597400 4.049600 2.459100 -15.271000 0.346600 2.343000 -5.408800 -1.516200 1.014700 2.967900 -30.690700 -8.523600 17.219000 45.139400 -19.141200 -7.315300 24.216100 -12.665000 3.841900 -0.000000 0.000000 0.000000 10.345100 17.059600 -59.296800 132.568900 -51.905400 95.862700 -30.711600 -39.462200 -7.466200 0.000000 0.000000 0.000000 -7.125000 0.000000 0.000000 -43.253900 33.304300 -16.994400 -0.000000 0.000000 0.000000 -8.969900 12.470500 62.141800 -129.793300 -53.078500 -93.660700 15.468700 9.539100 -4.286000 0.000000 0.000000 0.000000 7.125000 0.000000 -0.000000 30.269500 24.987500 17.056400
-5.705132 16.323448 34.612958 -132.671603 -82.052459 147.254078 0.000000 0.000000 0.000000 -12.474476 -0.407389 -20.236687 0.869565 5.945557 16.626509 0.286364 -10.594992 -11.302431 0.951991 -6.213458 -17.405143 0.000000 0.000000 0.000000 26.952991 -10.207197 -12.591362 0.000000 0.000000 0.000000 1.538737 23.490535 -1.808514 -0.237935 3.139308 -8.666907 4.424810 2.595507 -15.260125 0.367505 2.465589 -5.423559 -1.683682 1.072036 2.966676 -30.688810 -8.566583 17.197448 45.175590 -19.205672 -7.337149 24.218183 -12.702046 3.880459 0.000000 0.000000 0.000000 10.368149 16.973096 -59.310326 132.535659 -51.920226 95.836606 -31.023484 -39.285818 -7.432358 0.000000 0.000000 0.000000 -7.125000 0.000000 0.000000 -43.387765 33.214630 -17.234462 0.000000 0.000000 0.000000 -8.879010 12.449902 62.076452 -129.756345 -53.093289 -93.631189 15.412131 9.521996 -4.222023 0.000000 0.000000 0.000000 7.125000 0.000000 0.000000 30.250416 25.048747 16.989806
-5.704979 16.323874 34.611926 -132.564446 -82.046916 147.140659 0.000000 0.000000 0.000000 -12.437681 -0.471525 -20.259118 0.879205 5.977641 16.719696 0.292343 -10.547650 -11.353168 0.947011 -6.197769 -17.359307 0.000000 0.000000 0.000000 26.973995 -10.213344 -12.583249 0.000000 0.000000 0.000000 1.538037 23.495469 -1.829843 -0.240395 3.155429 -8.711745 4.451093 2.698602 -15.252992 0.274529 2.604036 -5.412679 -1.770855 1.141507 2.988261 -30.494284 -8.642961 17.343223 45.228492 -19.292987 -7.456904 24.182224 -12.769526 3.842009 0.000000 0.000000 0.000000 10.570781 16.857525 -59.580176 132.442527 -51.961593 95.763226 -31.352160 -38.699224 -7.218447 0.000000 0.000000 0.000000 -7.125000 0.000000 0.000000 -43.439727 32.964737 -17.671693 0.000000 0.000000 0.000000 -8.661678 12.512078 61.775507 -129.763017 -53.090633 -93.636471 15.395347 9.455009 -4.091577 0.000000 0.000000 0.000000 7.125000 0.000000 0.000000 30.273541 25.166642 16.906855
-5.704495 16.324200 34.611695 -132.568282 -82.043695 147.148282 0.000000 0.000000 0.000000 -12.431470 -0.487416 -20.255432 0.878673 5.975915 16.714454 0.293079 -10.522300 -11.350654 0.947834 -6.200233 -17.366466 0.000000 0.000000 0.000000 26.978142 -10.207571 -12.587814 0.000000 0.000000 0.000000 1.538637 23.497323 -1.824969 -0.240157 3.154001 -8.707961 4.477473 2.769455 -15.246966 0.184545 2.699090 -5.409012 -1.862910 1.188908 3.000249 -30.304747 -8.696904 17.437458 45.261846 -19.345262 -7.519949 24.139610 -12.811767 3.808447 0.000000 0.000000 0.000000 10.746624 16.779106 -59.733235 132.377190 -51.990535 95.711833 -31.724037 -38.190336 -7.038603 0.000000 0.000000 0.000000 -7.125000 0.000000 0.000000 -43.525792 32.733535 -18.108990 0.000000 0.000000 0.000000 -8.462296 12.552415 61.587180 -129.751481 -53.095285 -93.627224 15.379743 9.410024 -3.999708 0.000000 0.000000 0.000000 7.125000 0.000000 0.000000 30.287465 25.249877 16.846424
-5.704252 16.324200 34.611674 -132.604282 -82.058448 147.187234 0.000000 0.000000 0.000000 -12.448802 -0.487257 -20.257919 0.877610 5.972481 16.704492 0.292183 -10.525030 -11.341504 0.953668 -6.218747 -17.420408 0.000000 0.000000 0.000000 26.965307 -10.214216 -12.597798 0.000000 0.000000 0.000000 1.540038 23.500754 -1.810393 -0.238072 3.140067 -8.668971 4.473901 2.795316 -15.243862 0.135437 2.737072 -5.400432 -1.905449 1.208394 3.012406 -30.208578 -8.728855 17.466842 45.275292 -19.381059 -7.527695 24.110043 -12.835836 3.805373 0.000000 0.000000 0.000000 10.825010 16.725619 -59.783250 132.314490 -52.018316 95.662377 -32.118396 -37.626678 -6.844089 0.000000 0.000000 0.000000 -7.125000 0.000000 0.000000 -43.611280 32.481937 -18.584163 0.000000 0.000000 0.000000 -8.372763 12.554311 61.503635 -129.744501 -53.098054 -93.621665 15.361090 9.335166 -3.896507 0.000000 0.000000 0.000000 7.125000 0.000000 0.000000 30.302415 25.343509 16.777765
